<svg id="visual" viewBox="0 0 900 600" width="900" height="600" xmlns="http://www.w3.org/2000/svg" xmlns:xlink="http://www.w3.org/1999/xlink" version="1.1"><path d="M0 335L18.8 350C37.7 365 75.3 395 112.8 392.7C150.3 390.3 187.7 355.7 225.2 343C262.7 330.3 300.3 339.7 337.8 357.3C375.3 375 412.7 401 450.2 404.5C487.7 408 525.3 389 562.8 370.7C600.3 352.3 637.7 334.7 675.2 344.7C712.7 354.7 750.3 392.3 787.8 396C825.3 399.7 862.7 369.3 881.3 354.2L900 339L900 601L881.3 601C862.7 601 825.3 601 787.8 601C750.3 601 712.7 601 675.2 601C637.7 601 600.3 601 562.8 601C525.3 601 487.7 601 450.2 601C412.7 601 375.3 601 337.8 601C300.3 601 262.7 601 225.2 601C187.7 601 150.3 601 112.8 601C75.3 601 37.7 601 18.8 601L0 601Z" fill="#1d4ed8"></path><path d="M0 416L18.8 418C37.7 420 75.3 424 112.8 426.2C150.3 428.3 187.7 428.7 225.2 425.5C262.7 422.3 300.3 415.7 337.8 424.8C375.3 434 412.7 459 450.2 462.2C487.7 465.3 525.3 446.7 562.8 442.8C600.3 439 637.7 450 675.2 460.3C712.7 470.7 750.3 480.3 787.8 472.2C825.3 464 862.7 438 881.3 425L900 412L900 601L881.3 601C862.7 601 825.3 601 787.8 601C750.3 601 712.7 601 675.2 601C637.7 601 600.3 601 562.8 601C525.3 601 487.7 601 450.2 601C412.7 601 375.3 601 337.8 601C300.3 601 262.7 601 225.2 601C187.7 601 150.3 601 112.8 601C75.3 601 37.7 601 18.8 601L0 601Z" fill="#488cf1"></path><path d="M0 530L18.8 530.7C37.7 531.3 75.3 532.7 112.8 533C150.3 533.3 187.7 532.7 225.2 523.3C262.7 514 300.3 496 337.8 486C375.3 476 412.7 474 450.2 485C487.7 496 525.3 520 562.8 525.2C600.3 530.3 637.7 516.7 675.2 509.7C712.7 502.7 750.3 502.3 787.8 509C825.3 515.7 862.7 529.3 881.3 536.2L900 543L900 601L881.3 601C862.7 601 825.3 601 787.8 601C750.3 601 712.7 601 675.2 601C637.7 601 600.3 601 562.8 601C525.3 601 487.7 601 450.2 601C412.7 601 375.3 601 337.8 601C300.3 601 262.7 601 225.2 601C187.7 601 150.3 601 112.8 601C75.3 601 37.7 601 18.8 601L0 601Z" fill="#93c5fd"></path></svg>