<svg id="visual" viewBox="0 0 900 600" width="900" height="600" xmlns="http://www.w3.org/2000/svg" xmlns:xlink="http://www.w3.org/1999/xlink" version="1.1"><path d="M0 338L18.8 336.2C37.7 334.3 75.3 330.7 112.8 342.3C150.3 354 187.7 381 225.2 389.5C262.7 398 300.3 388 337.8 369C375.3 350 412.7 322 450.2 329.7C487.7 337.3 525.3 380.7 562.8 398.7C600.3 416.7 637.7 409.3 675.2 392.8C712.7 376.3 750.3 350.7 787.8 344C825.3 337.3 862.7 349.7 881.3 355.8L900 362L900 601L881.3 601C862.7 601 825.3 601 787.8 601C750.3 601 712.7 601 675.2 601C637.7 601 600.3 601 562.8 601C525.3 601 487.7 601 450.2 601C412.7 601 375.3 601 337.8 601C300.3 601 262.7 601 225.2 601C187.7 601 150.3 601 112.8 601C75.3 601 37.7 601 18.8 601L0 601Z" fill="#1d4ed8"></path><path d="M0 373L18.8 372.8C37.7 372.7 75.3 372.3 112.8 383C150.3 393.7 187.7 415.3 225.2 419C262.7 422.7 300.3 408.3 337.8 414.8C375.3 421.3 412.7 448.7 450.2 451.8C487.7 455 525.3 434 562.8 429.3C600.3 424.7 637.7 436.3 675.2 441.7C712.7 447 750.3 446 787.8 437.3C825.3 428.7 862.7 412.3 881.3 404.2L900 396L900 601L881.3 601C862.7 601 825.3 601 787.8 601C750.3 601 712.7 601 675.2 601C637.7 601 600.3 601 562.8 601C525.3 601 487.7 601 450.2 601C412.7 601 375.3 601 337.8 601C300.3 601 262.7 601 225.2 601C187.7 601 150.3 601 112.8 601C75.3 601 37.7 601 18.8 601L0 601Z" fill="#488cf1"></path><path d="M0 521L18.8 524.2C37.7 527.3 75.3 533.7 112.8 534C150.3 534.3 187.7 528.7 225.2 514.8C262.7 501 300.3 479 337.8 472.5C375.3 466 412.7 475 450.2 476.7C487.7 478.3 525.3 472.7 562.8 482.5C600.3 492.3 637.7 517.7 675.2 517.8C712.7 518 750.3 493 787.8 489.8C825.3 486.7 862.7 505.3 881.3 514.7L900 524L900 601L881.3 601C862.7 601 825.3 601 787.8 601C750.3 601 712.7 601 675.2 601C637.7 601 600.3 601 562.8 601C525.3 601 487.7 601 450.2 601C412.7 601 375.3 601 337.8 601C300.3 601 262.7 601 225.2 601C187.7 601 150.3 601 112.8 601C75.3 601 37.7 601 18.8 601L0 601Z" fill="#93c5fd"></path></svg>